<svg width="160" height="92" viewBox="0 0 160 92" fill="none" xmlns="http://www.w3.org/2000/svg">
<g opacity="0.2">
<path d="M-1410 63.2812L948.89 1425.19" stroke="#480512" stroke-linejoin="round"/>
<path d="M-1370 -6L988.89 1355.91" stroke="#480512" stroke-linejoin="round"/>
<path d="M-1330 -75.2852L1028.89 1286.62" stroke="#480512" stroke-linejoin="round"/>
<path d="M-1290 -144.566L1068.89 1217.34" stroke="#480512" stroke-linejoin="round"/>
<path d="M-1250 -213.848L1108.89 1148.06" stroke="#480512" stroke-linejoin="round"/>
<path d="M-1210 -283.129L1148.89 1078.78" stroke="#480512" stroke-linejoin="round"/>
<path d="M-1170 -352.41L1188.89 1009.5" stroke="#480512" stroke-linejoin="round"/>
<path d="M-1130 -421.695L1228.89 940.211" stroke="#480512" stroke-linejoin="round"/>
<path d="M-1090 -490.977L1268.89 870.929" stroke="#480512" stroke-linejoin="round"/>
<path d="M-1050 -560.258L1308.89 801.648" stroke="#480512" stroke-linejoin="round"/>
<path d="M-1010 -629.539L1348.89 732.367" stroke="#480512" stroke-linejoin="round"/>
<path d="M-970 -698.82L1388.89 663.086" stroke="#480512" stroke-linejoin="round"/>
<path d="M-930 -768.105L1428.89 593.8" stroke="#480512" stroke-linejoin="round"/>
<path d="M-890 -837.387L1468.89 524.519" stroke="#480512" stroke-linejoin="round"/>
<path d="M-850 -906.668L1508.89 455.238" stroke="#480512" stroke-linejoin="round"/>
<path d="M-810 -975.949L1548.89 385.957" stroke="#480512" stroke-linejoin="round"/>
<path d="M-770 -1045.23L1588.89 316.675" stroke="#480512" stroke-linejoin="round"/>
<path d="M-730 -1114.52L1628.89 247.39" stroke="#480512" stroke-linejoin="round"/>
<path d="M-690 -1183.8L1668.89 178.109" stroke="#480512" stroke-linejoin="round"/>
<path d="M-650 -1253.08L1708.89 108.828" stroke="#480512" stroke-linejoin="round"/>
<path d="M-610 -1322.36L1748.89 39.5465" stroke="#480512" stroke-linejoin="round"/>
<path d="M770.89 -1323L-1588 38.9059" stroke="#480512" stroke-linejoin="round"/>
<path d="M810.89 -1253.72L-1548 108.187" stroke="#480512" stroke-linejoin="round"/>
<path d="M850.89 -1184.44L-1508 177.468" stroke="#480512" stroke-linejoin="round"/>
<path d="M890.89 -1115.15L-1468 246.754" stroke="#480512" stroke-linejoin="round"/>
<path d="M930.89 -1045.87L-1428 316.035" stroke="#480512" stroke-linejoin="round"/>
<path d="M970.89 -976.59L-1388 385.316" stroke="#480512" stroke-linejoin="round"/>
<path d="M1010.89 -907.309L-1348 454.597" stroke="#480512" stroke-linejoin="round"/>
<path d="M1050.89 -838.027L-1308 523.879" stroke="#480512" stroke-linejoin="round"/>
<path d="M1090.89 -768.742L-1268 593.164" stroke="#480512" stroke-linejoin="round"/>
<path d="M1130.89 -699.461L-1228 662.445" stroke="#480512" stroke-linejoin="round"/>
<path d="M1170.89 -630.18L-1188 731.726" stroke="#480512" stroke-linejoin="round"/>
<path d="M1210.89 -560.898L-1148 801.007" stroke="#480512" stroke-linejoin="round"/>
<path d="M1250.89 -491.617L-1108 870.289" stroke="#480512" stroke-linejoin="round"/>
<path d="M1290.89 -422.332L-1068 939.574" stroke="#480512" stroke-linejoin="round"/>
<path d="M1330.89 -353.051L-1028 1008.86" stroke="#480512" stroke-linejoin="round"/>
<path d="M1370.89 -283.77L-988 1078.14" stroke="#480512" stroke-linejoin="round"/>
<path d="M1410.89 -214.488L-948 1147.42" stroke="#480512" stroke-linejoin="round"/>
<path d="M1450.89 -145.207L-908 1216.7" stroke="#480512" stroke-linejoin="round"/>
<path d="M1490.89 -75.9219L-868 1285.98" stroke="#480512" stroke-linejoin="round"/>
<path d="M1530.89 -6.64062L-828 1355.27" stroke="#480512" stroke-linejoin="round"/>
<path d="M1570.89 62.6406L-788 1424.55" stroke="#480512" stroke-linejoin="round"/>
</g>
</svg>
